<svg width="212" height="203" viewBox="0 0 212 203" fill="none" xmlns="http://www.w3.org/2000/svg">
<rect width="212" height="203" fill="white"/>
<path fill-rule="evenodd" clip-rule="evenodd" d="M123.25 95C123.25 99.5563 119.556 103.25 115 103.25C110.444 103.25 106.75 99.5563 106.75 95C106.75 90.4437 110.444 86.75 115 86.75C119.556 86.75 123.25 90.4437 123.25 95Z" stroke="#231815" stroke-width="2"/>
<g clip-path="url(#clip0_380_770)">
<line x1="129" y1="95.25" x2="126.5" y2="95.25" stroke="#F25022" stroke-width="2" stroke-linecap="round" stroke-linejoin="round"/>
</g>
<g clip-path="url(#clip1_380_770)">
<line x1="103.5" y1="95.25" x2="101" y2="95.25" stroke="#F25022" stroke-width="2" stroke-linecap="round" stroke-linejoin="round"/>
</g>
<g clip-path="url(#clip2_380_770)">
<line x1="129" y1="95.25" x2="126.5" y2="95.25" stroke="#231815" stroke-width="2" stroke-linecap="round" stroke-linejoin="round"/>
</g>
<g clip-path="url(#clip3_380_770)">
<line x1="103.5" y1="95.25" x2="101" y2="95.25" stroke="#231815" stroke-width="2" stroke-linecap="round" stroke-linejoin="round"/>
</g>
<g clip-path="url(#clip4_380_770)">
<line x1="126.999" y1="102.217" x2="124.834" y2="100.967" stroke="#231815" stroke-width="2" stroke-linecap="round" stroke-linejoin="round"/>
</g>
<g clip-path="url(#clip5_380_770)">
<line x1="121.784" y1="107.249" x2="120.534" y2="105.084" stroke="#231815" stroke-width="2" stroke-linecap="round" stroke-linejoin="round"/>
</g>
<g clip-path="url(#clip6_380_770)">
<line x1="109.034" y1="85.1657" x2="107.784" y2="83.0006" stroke="#231815" stroke-width="2" stroke-linecap="round" stroke-linejoin="round"/>
</g>
<g clip-path="url(#clip7_380_770)">
<line x1="114.75" y1="109" x2="114.75" y2="106.5" stroke="#231815" stroke-width="2" stroke-linecap="round" stroke-linejoin="round"/>
</g>
<g clip-path="url(#clip8_380_770)">
<line x1="114.75" y1="83.5" x2="114.75" y2="81" stroke="#231815" stroke-width="2" stroke-linecap="round" stroke-linejoin="round"/>
</g>
<g clip-path="url(#clip9_380_770)">
<line x1="107.784" y1="106.999" x2="109.034" y2="104.834" stroke="#231815" stroke-width="2" stroke-linecap="round" stroke-linejoin="round"/>
</g>
<g clip-path="url(#clip10_380_770)">
<line x1="120.534" y1="84.9157" x2="121.784" y2="82.7506" stroke="#231815" stroke-width="2" stroke-linecap="round" stroke-linejoin="round"/>
</g>
<g clip-path="url(#clip11_380_770)">
<line x1="102.751" y1="101.783" x2="104.916" y2="100.533" stroke="#231815" stroke-width="2" stroke-linecap="round" stroke-linejoin="round"/>
</g>
<g clip-path="url(#clip12_380_770)">
<line x1="124.834" y1="89.0335" x2="126.999" y2="87.7835" stroke="#231815" stroke-width="2" stroke-linecap="round" stroke-linejoin="round"/>
</g>
<path d="M122.5 95C122.5 99.1421 119.142 102.5 115 102.5C110.858 102.5 107.5 99.1421 107.5 95C107.5 90.8579 110.858 87.5 115 87.5C119.142 87.5 122.5 90.8579 122.5 95Z" fill="#FFB900"/>
<path fill-rule="evenodd" clip-rule="evenodd" d="M115.813 99.0641C115.813 99.0641 115.997 100 116.06 100.009C119.454 100.493 122 102.472 122 106C122 109.866 118.866 113 115 113H97C93.134 113 90 109.866 90 106C90 102.472 92.6092 99.5544 96.003 99.0705C96.0659 99.0615 96.1275 99.0596 96.1873 99.0641C97.0889 94.4677 101.139 91 106 91C110.861 91 114.911 94.4677 115.813 99.0641Z" fill="#F3F3F3"/>
<path d="M97.5294 113C93.371 113 90 109.717 90 105.667C90 102.129 92.5718 99.1766 95.9938 98.486C97.1702 94.1758 101.204 91 106 91C111.421 91 115.87 95.0587 116.316 100.227C119.527 100.656 122 103.338 122 106.583C122 110.127 119.05 113 115.412 113H97.5294Z" stroke="#231815" stroke-width="2" stroke-linecap="round" stroke-linejoin="round"/>
<defs>
<clipPath id="clip0_380_770">
<rect x="124.75" y="93.5" width="6" height="3" rx="1.5" fill="white"/>
</clipPath>
<clipPath id="clip1_380_770">
<rect x="99.25" y="93.5" width="6" height="3" rx="1.5" fill="white"/>
</clipPath>
<clipPath id="clip2_380_770">
<rect x="124.75" y="93.5" width="6" height="3" rx="1.5" fill="white"/>
</clipPath>
<clipPath id="clip3_380_770">
<rect x="99.25" y="93.5" width="6" height="3" rx="1.5" fill="white"/>
</clipPath>
<clipPath id="clip4_380_770">
<rect x="124.194" y="98.576" width="6" height="3" rx="1.5" transform="rotate(30 124.194 98.576)" fill="white"/>
</clipPath>
<clipPath id="clip5_380_770">
<rect x="121.174" y="102.694" width="6" height="3" rx="1.5" transform="rotate(60 121.174 102.694)" fill="white"/>
</clipPath>
<clipPath id="clip6_380_770">
<rect x="108.424" y="80.6101" width="6" height="3" rx="1.5" transform="rotate(60 108.424 80.6101)" fill="white"/>
</clipPath>
<clipPath id="clip7_380_770">
<rect x="116.5" y="104.75" width="6" height="3" rx="1.5" transform="rotate(90 116.5 104.75)" fill="white"/>
</clipPath>
<clipPath id="clip8_380_770">
<rect x="116.5" y="79.25" width="6" height="3" rx="1.5" transform="rotate(90 116.5 79.25)" fill="white"/>
</clipPath>
<clipPath id="clip9_380_770">
<rect x="111.424" y="104.194" width="6" height="3" rx="1.5" transform="rotate(120 111.424 104.194)" fill="white"/>
</clipPath>
<clipPath id="clip10_380_770">
<rect x="124.174" y="82.1101" width="6" height="3" rx="1.5" transform="rotate(120 124.174 82.1101)" fill="white"/>
</clipPath>
<clipPath id="clip11_380_770">
<rect x="107.306" y="101.174" width="6" height="3" rx="1.5" transform="rotate(150 107.306 101.174)" fill="white"/>
</clipPath>
<clipPath id="clip12_380_770">
<rect x="129.39" y="88.424" width="6" height="3" rx="1.5" transform="rotate(150 129.39 88.424)" fill="white"/>
</clipPath>
</defs>
</svg>
