<svg width="212" height="203" viewBox="0 0 212 203" fill="none" xmlns="http://www.w3.org/2000/svg">
<rect width="212" height="203" fill="white"/>
<path fill-rule="evenodd" clip-rule="evenodd" d="M115.813 99.0641C115.813 99.0641 115.997 100 116.06 100.009C119.454 100.493 122 102.472 122 106C122 109.866 118.866 113 115 113H97C93.134 113 90 109.866 90 106C90 102.472 92.6092 99.5544 96.003 99.0705C96.0659 99.0615 96.1275 99.0596 96.1873 99.0641C97.0889 94.4677 101.139 91 106 91C110.861 91 114.911 94.4677 115.813 99.0641Z" fill="#F3F3F3"/>
<path d="M115 113H115.412C119.05 113 122 110.127 122 106.583C122 103.338 119.527 100.656 116.316 100.227C115.87 95.0587 111.421 91 106 91C101.204 91 97.1702 94.1758 95.9938 98.486C92.5718 99.1766 90 102.129 90 105.667C90 109.543 93.0886 112.718 97 112.982" stroke="#231815" stroke-width="2" stroke-linecap="round" stroke-linejoin="round"/>
<path d="M101.273 106.875C101.273 106.392 101.665 106 102.148 106C102.632 106 103.023 106.392 103.023 106.875V107.984L103.984 107.43C104.403 107.188 104.938 107.331 105.18 107.75C105.421 108.169 105.278 108.704 104.859 108.945L103.898 109.5L104.859 110.055C105.278 110.296 105.421 110.831 105.18 111.25C104.938 111.669 104.403 111.812 103.984 111.57L103.023 111.016V112.125C103.023 112.608 102.632 113 102.148 113C101.665 113 101.273 112.608 101.273 112.125V111.016L100.313 111.57C99.8941 111.812 99.359 111.669 99.1174 111.25C98.8758 110.831 99.0191 110.296 99.4376 110.055L100.398 109.5L99.4376 108.945C99.0191 108.704 98.8757 108.169 99.1174 107.75C99.359 107.331 99.8941 107.188 100.313 107.43L101.273 107.984V106.875Z" fill="#231815"/>
<path d="M109.273 108.875C109.273 108.392 109.665 108 110.148 108C110.632 108 111.023 108.392 111.023 108.875V109.984L111.984 109.43C112.403 109.188 112.938 109.331 113.18 109.75C113.421 110.169 113.278 110.704 112.859 110.945L111.898 111.5L112.859 112.055C113.278 112.296 113.421 112.831 113.18 113.25C112.938 113.669 112.403 113.812 111.984 113.57L111.023 113.016V114.125C111.023 114.608 110.632 115 110.148 115C109.665 115 109.273 114.608 109.273 114.125V113.016L108.313 113.57C107.894 113.812 107.359 113.669 107.117 113.25C106.876 112.831 107.019 112.296 107.438 112.055L108.398 111.5L107.438 110.945C107.019 110.704 106.876 110.169 107.117 109.75C107.359 109.331 107.894 109.188 108.313 109.43L109.273 109.984V108.875Z" fill="#231815"/>
<path d="M103.273 114.375C103.273 113.892 103.665 113.5 104.148 113.5C104.632 113.5 105.023 113.892 105.023 114.375V115.484L105.984 114.93C106.403 114.688 106.938 114.831 107.18 115.25C107.421 115.669 107.278 116.204 106.859 116.445L105.898 117L106.859 117.555C107.278 117.796 107.421 118.331 107.18 118.75C106.938 119.169 106.403 119.312 105.984 119.07L105.023 118.516V119.625C105.023 120.108 104.632 120.5 104.148 120.5C103.665 120.5 103.273 120.108 103.273 119.625V118.516L102.313 119.07C101.894 119.312 101.359 119.169 101.117 118.75C100.876 118.331 101.019 117.796 101.438 117.555L102.398 117L101.438 116.445C101.019 116.204 100.876 115.669 101.117 115.25C101.359 114.831 101.894 114.688 102.313 114.93L103.273 115.484V114.375Z" fill="#231815"/>
</svg>
