<svg width="212" height="203" viewBox="0 0 212 203" fill="none" xmlns="http://www.w3.org/2000/svg">
<rect width="212" height="203" fill="white"/>
<path fill-rule="evenodd" clip-rule="evenodd" d="M115.813 99.0641C115.813 99.0641 115.997 100 116.06 100.009C119.454 100.493 122 102.472 122 106C122 109.866 118.866 113 115 113H97C93.134 113 90 109.866 90 106C90 102.472 92.6092 99.5544 96.003 99.0705C96.0659 99.0615 96.1275 99.0596 96.1873 99.0641C97.0889 94.4677 101.139 91 106 91C110.861 91 114.911 94.4677 115.813 99.0641Z" fill="#F3F3F3"/>
<path d="M115 113H115.412C119.05 113 122 110.127 122 106.583C122 103.338 119.527 100.656 116.316 100.227C115.87 95.0587 111.421 91 106 91C101.204 91 97.1702 94.1758 95.9938 98.486C92.5718 99.1766 90 102.129 90 105.667C90 109.543 93.0886 112.718 97 112.982" stroke="#231815" stroke-width="2" stroke-linecap="round" stroke-linejoin="round"/>
<path fill-rule="evenodd" clip-rule="evenodd" d="M108.866 115.562C108.388 115.286 108.261 114.61 108.583 114.052L110.917 110.01C111.239 109.452 111.888 109.224 112.366 109.5C112.844 109.776 112.971 110.452 112.649 111.01L110.315 115.052C109.993 115.61 109.344 115.838 108.866 115.562Z" fill="#231815"/>
<path d="M107.981 111.187C107.94 111.068 107.837 110.981 107.716 110.963L103.995 110.412L105.702 106.482C105.747 106.376 105.738 106.253 105.677 106.156C105.616 106.059 105.511 106 105.399 106H100.202C100.024 106 99.8772 106.146 99.8708 106.33L99.6315 113.314C99.6255 113.488 99.7481 113.639 99.9157 113.664L102.503 114.048L99.0414 120.493C98.9603 120.644 99.0015 120.834 99.1376 120.936C99.1962 120.979 99.2639 121 99.3316 121C99.4214 121 99.5105 120.962 99.5755 120.889L107.913 111.533C107.996 111.44 108.022 111.307 107.981 111.187Z" fill="#FFB900"/>
</svg>
