<svg width="212" height="203" viewBox="0 0 212 203" fill="none" xmlns="http://www.w3.org/2000/svg">
<rect width="212" height="203" fill="white"/>
<path fill-rule="evenodd" clip-rule="evenodd" d="M117 102C117 108.075 112.075 113 106 113C99.9249 113 95 108.075 95 102C95 95.9249 99.9249 91 106 91C112.075 91 117 95.9249 117 102Z" stroke="#231815" stroke-width="2"/>
<line x1="125" y1="102" x2="121" y2="102" stroke="#F25022" stroke-width="2" stroke-linecap="round" stroke-linejoin="round"/>
<line x1="91" y1="102" x2="87" y2="102" stroke="#F25022" stroke-width="2" stroke-linecap="round" stroke-linejoin="round"/>
<line x1="125" y1="102" x2="121" y2="102" stroke="#231815" stroke-width="2" stroke-linecap="round" stroke-linejoin="round"/>
<line x1="91" y1="102" x2="87" y2="102" stroke="#231815" stroke-width="2" stroke-linecap="round" stroke-linejoin="round"/>
<g clip-path="url(#clip0_380_769)">
<line x1="122.454" y1="111.5" x2="118.99" y2="109.5" stroke="#231815" stroke-width="2" stroke-linecap="round" stroke-linejoin="round"/>
</g>
<g clip-path="url(#clip1_380_769)">
<line x1="93.0096" y1="94.5" x2="89.5455" y2="92.5" stroke="#231815" stroke-width="2" stroke-linecap="round" stroke-linejoin="round"/>
</g>
<g clip-path="url(#clip2_380_769)">
<line x1="115.5" y1="118.454" x2="113.5" y2="114.99" stroke="#231815" stroke-width="2" stroke-linecap="round" stroke-linejoin="round"/>
</g>
<g clip-path="url(#clip3_380_769)">
<line x1="98.5" y1="89.0096" x2="96.5" y2="85.5455" stroke="#231815" stroke-width="2" stroke-linecap="round" stroke-linejoin="round"/>
</g>
<g clip-path="url(#clip4_380_769)">
<line x1="106" y1="121" x2="106" y2="117" stroke="#231815" stroke-width="2" stroke-linecap="round" stroke-linejoin="round"/>
</g>
<g clip-path="url(#clip5_380_769)">
<line x1="106" y1="87" x2="106" y2="83" stroke="#231815" stroke-width="2" stroke-linecap="round" stroke-linejoin="round"/>
</g>
<g clip-path="url(#clip6_380_769)">
<line x1="96.5" y1="118.454" x2="98.5" y2="114.99" stroke="#231815" stroke-width="2" stroke-linecap="round" stroke-linejoin="round"/>
</g>
<g clip-path="url(#clip7_380_769)">
<line x1="113.5" y1="89.0096" x2="115.5" y2="85.5455" stroke="#231815" stroke-width="2" stroke-linecap="round" stroke-linejoin="round"/>
</g>
<g clip-path="url(#clip8_380_769)">
<line x1="89.5455" y1="111.5" x2="93.0096" y2="109.5" stroke="#231815" stroke-width="2" stroke-linecap="round" stroke-linejoin="round"/>
</g>
<g clip-path="url(#clip9_380_769)">
<line x1="118.99" y1="94.5" x2="122.454" y2="92.5" stroke="#231815" stroke-width="2" stroke-linecap="round" stroke-linejoin="round"/>
</g>
<path d="M116 102C116 107.523 111.523 112 106 112C100.477 112 96 107.523 96 102C96 96.4772 100.477 92 106 92C111.523 92 116 96.4772 116 102Z" fill="#FFB900"/>
<defs>
<clipPath id="clip0_380_769">
<rect x="118.258" y="106.768" width="8" height="4" rx="2" transform="rotate(30 118.258 106.768)" fill="white"/>
</clipPath>
<clipPath id="clip1_380_769">
<rect x="88.8135" y="89.7679" width="8" height="4" rx="2" transform="rotate(30 88.8135 89.7679)" fill="white"/>
</clipPath>
<clipPath id="clip2_380_769">
<rect x="114.232" y="112.258" width="8" height="4" rx="2" transform="rotate(60 114.232 112.258)" fill="white"/>
</clipPath>
<clipPath id="clip3_380_769">
<rect x="97.2321" y="82.8135" width="8" height="4" rx="2" transform="rotate(60 97.2321 82.8135)" fill="white"/>
</clipPath>
<clipPath id="clip4_380_769">
<rect x="108" y="115" width="8" height="4" rx="2" transform="rotate(90 108 115)" fill="white"/>
</clipPath>
<clipPath id="clip5_380_769">
<rect x="108" y="81" width="8" height="4" rx="2" transform="rotate(90 108 81)" fill="white"/>
</clipPath>
<clipPath id="clip6_380_769">
<rect x="101.232" y="114.258" width="8" height="4" rx="2" transform="rotate(120 101.232 114.258)" fill="white"/>
</clipPath>
<clipPath id="clip7_380_769">
<rect x="118.232" y="84.8135" width="8" height="4" rx="2" transform="rotate(120 118.232 84.8135)" fill="white"/>
</clipPath>
<clipPath id="clip8_380_769">
<rect x="95.7417" y="110.232" width="8" height="4" rx="2" transform="rotate(150 95.7417 110.232)" fill="white"/>
</clipPath>
<clipPath id="clip9_380_769">
<rect x="125.187" y="93.2321" width="8" height="4" rx="2" transform="rotate(150 125.187 93.2321)" fill="white"/>
</clipPath>
</defs>
</svg>
