<svg width="212" height="203" viewBox="0 0 212 203" fill="none" xmlns="http://www.w3.org/2000/svg">
<rect width="212" height="203" fill="white"/>
<path fill-rule="evenodd" clip-rule="evenodd" d="M115.813 99.0641C115.813 99.0641 115.997 100 116.06 100.009C119.454 100.493 122 102.472 122 106C122 109.866 118.866 113 115 113H97C93.134 113 90 109.866 90 106C90 102.472 92.6092 99.5544 96.003 99.0705C96.0659 99.0615 96.1275 99.0596 96.1873 99.0641C97.0889 94.4677 101.139 91 106 91C110.861 91 114.911 94.4677 115.813 99.0641Z" fill="#F3F3F3"/>
<path d="M115 113H115.412C119.05 113 122 110.127 122 106.583C122 103.338 119.527 100.656 116.316 100.227C115.87 95.0587 111.421 91 106 91C101.204 91 97.1702 94.1758 95.9938 98.486C92.5718 99.1766 90 102.129 90 105.667C90 109.543 93.0886 112.718 97 112.982" stroke="#231815" stroke-width="2" stroke-linecap="round" stroke-linejoin="round"/>
<path fill-rule="evenodd" clip-rule="evenodd" d="M107.866 114.179C107.388 113.903 107.261 113.227 107.583 112.669L109.917 108.628C110.239 108.07 110.888 107.841 111.366 108.117C111.844 108.393 111.971 109.07 111.649 109.628L109.315 113.669C108.993 114.227 108.344 114.456 107.866 114.179Z" fill="#231815"/>
<path fill-rule="evenodd" clip-rule="evenodd" d="M108.866 119.179C108.388 118.903 108.261 118.227 108.583 117.669L110.917 113.628C111.239 113.07 111.888 112.841 112.366 113.117C112.844 113.393 112.971 114.07 112.649 114.628L110.315 118.669C109.993 119.227 109.344 119.456 108.866 119.179Z" fill="#231815"/>
<path d="M102.273 110.492C102.273 110.009 102.665 109.617 103.148 109.617C103.632 109.617 104.023 110.009 104.023 110.492V111.602L104.984 111.047C105.403 110.805 105.938 110.949 106.18 111.367C106.421 111.786 106.278 112.321 105.859 112.562L104.898 113.117L105.859 113.672C106.278 113.914 106.421 114.449 106.18 114.867C105.938 115.286 105.403 115.429 104.984 115.187L104.023 114.633V115.742C104.023 116.225 103.632 116.617 103.148 116.617C102.665 116.617 102.273 116.225 102.273 115.742V114.633L101.313 115.187C100.894 115.429 100.359 115.286 100.117 114.867C99.8758 114.449 100.019 113.914 100.438 113.672L101.398 113.117L100.438 112.562C100.019 112.321 99.8757 111.786 100.117 111.367C100.359 110.949 100.894 110.805 101.313 111.047L102.273 111.602V110.492Z" fill="#231815"/>
</svg>
