<svg width="212" height="203" viewBox="0 0 212 203" fill="none" xmlns="http://www.w3.org/2000/svg">
<rect width="212" height="203" fill="white"/>
<path fill-rule="evenodd" clip-rule="evenodd" d="M115.813 99.0641C115.813 99.0641 115.997 100 116.06 100.009C119.454 100.493 122 102.472 122 106C122 109.866 118.866 113 115 113H97C93.134 113 90 109.866 90 106C90 102.472 92.6092 99.5544 96.003 99.0705C96.0659 99.0615 96.1275 99.0596 96.1873 99.0641C97.0889 94.4677 101.139 91 106 91C110.861 91 114.911 94.4677 115.813 99.0641Z" fill="#F3F3F3"/>
<path d="M115 113H115.412C119.05 113 122 110.127 122 106.583C122 103.338 119.527 100.656 116.316 100.227C115.87 95.0587 111.421 91 106 91C101.204 91 97.1702 94.1758 95.9938 98.486C92.5718 99.1766 90 102.129 90 105.667C90 109.543 93.0886 112.718 97 112.982" stroke="#231815" stroke-width="2" stroke-linecap="round" stroke-linejoin="round"/>
<path d="M103 112.5C103 113.328 102.328 114 101.5 114C100.672 114 100 113.328 100 112.5C100 111.672 100.672 111 101.5 111C102.328 111 103 111.672 103 112.5Z" fill="#231815"/>
<path d="M107.5 114.5C107.5 115.328 106.828 116 106 116C105.172 116 104.5 115.328 104.5 114.5C104.5 113.672 105.172 113 106 113C106.828 113 107.5 113.672 107.5 114.5Z" fill="#231815"/>
<path d="M107.5 109.5C107.5 110.328 106.828 111 106 111C105.172 111 104.5 110.328 104.5 109.5C104.5 108.672 105.172 108 106 108C106.828 108 107.5 108.672 107.5 109.5Z" fill="#231815"/>
<path d="M112 112.5C112 113.328 111.328 114 110.5 114C109.672 114 109 113.328 109 112.5C109 111.672 109.672 111 110.5 111C111.328 111 112 111.672 112 112.5Z" fill="#231815"/>
<path d="M103 116.5C103 117.328 102.328 118 101.5 118C100.672 118 100 117.328 100 116.5C100 115.672 100.672 115 101.5 115C102.328 115 103 115.672 103 116.5Z" fill="#231815"/>
<path d="M112 116.5C112 117.328 111.328 118 110.5 118C109.672 118 109 117.328 109 116.5C109 115.672 109.672 115 110.5 115C111.328 115 112 115.672 112 116.5Z" fill="#231815"/>
</svg>
