<svg width="110" height="104" viewBox="0 0 110 104" fill="none" xmlns="http://www.w3.org/2000/svg">
<path d="M77 62.4002C89.1503 62.4002 99 71.7125 99 83.2V85.7996C99 95.8512 90.3815 104 79.75 104C69.1185 104 60.5 95.8512 60.5 85.7996V83.2C60.5 80.3281 62.9624 77.9998 66 77.9998C69.0376 77.9998 71.5 80.3281 71.5 83.2V85.7996C71.5 90.1074 75.1936 93.6004 79.75 93.6004C84.3064 93.6004 88 90.1074 88 85.7996V83.2C88 77.4563 83.0751 72.7996 77 72.7996H22C18.9626 72.7996 16.5002 70.4721 16.5 67.6004C16.5 64.7285 18.9624 62.4002 22 62.4002H77ZM82.5 46.7996C85.5375 46.7996 87.9999 49.128 88 51.9998C88 54.8717 85.5376 57.2 82.5 57.2H27.5C24.4624 57.2 22 54.8717 22 51.9998C22.0001 49.128 24.4625 46.7996 27.5 46.7996H82.5ZM55 5.20001C64.1126 5.20001 71.4998 12.1842 71.5 20.7996V23.4002C71.4999 33.4517 62.8814 41.6004 52.25 41.6004H16.5C13.4625 41.6004 11.0001 39.272 11 36.4002C11 33.5283 13.4624 31.2 16.5 31.2H52.25C56.8063 31.2 60.4999 27.7079 60.5 23.4002V20.7996C60.4998 17.9279 58.0374 15.6004 55 15.6004C51.9626 15.6004 49.5002 17.9279 49.5 20.7996V22.2186C49.4998 25.0903 47.0374 27.4178 44 27.4178C40.9626 27.4178 38.5002 25.0903 38.5 22.2186V20.7996C38.5002 12.1842 45.8874 5.20001 55 5.20001Z" fill="#231815"/>
</svg>
